<svg width="96" height="24" viewBox="0 0 96 24" fill="none" xmlns="http://www.w3.org/2000/svg">
<path d="M9.08994 24C7.7948 24 6.58761 23.7856 5.46836 23.3569C4.36509 22.9117 3.40573 22.2851 2.59027 21.4772C1.77482 20.6692 1.13524 19.7211 0.671552 18.6328C0.223851 17.5445 0 16.349 0 15.0464C0 13.7437 0.223851 12.5483 0.671552 11.46C1.13524 10.3717 1.77482 9.42357 2.59027 8.6156C3.42172 7.80763 4.38907 7.18928 5.49234 6.76056C6.5956 6.31536 7.8028 6.09275 9.11393 6.09275C10.569 6.09275 11.8801 6.35658 13.0473 6.88423C14.2305 7.3954 14.2545 12.9523 15.054 13.9581L13.527 11.5342C12.9514 10.8581 12.3118 10.3552 11.6083 10.0254C10.9047 9.67915 10.1372 9.50601 9.3058 9.50601C8.52232 9.50601 7.8028 9.63793 7.14724 9.90175C6.49167 10.1656 5.92405 10.5448 5.44437 11.0395C4.96469 11.5342 4.58894 12.1195 4.31712 12.7956C4.06129 13.4717 3.93338 14.2219 3.93338 15.0464C3.93338 15.8708 4.06129 16.6211 4.31712 17.2971C4.58894 17.9732 4.96469 18.5586 5.44437 19.0532C5.92405 19.5479 6.49167 19.9272 7.14724 20.191C7.8028 20.4548 8.52232 20.5867 9.3058 20.5867C10.1372 20.5867 10.9047 20.4219 11.6083 20.0921C12.3118 19.7458 12.9514 19.2264 13.527 18.5338L16.0213 20.9083C15.2219 21.9141 14.2305 22.6809 13.0473 23.2085C11.8801 23.7362 10.561 24 9.08994 24Z" fill="#FF781F"/>
<path d="M24.0762 23.9011C22.7011 23.9011 21.4779 23.6043 20.4066 23.0107C19.3514 22.417 18.5119 21.6091 17.8883 20.5867C17.2807 19.5479 16.9769 18.3689 16.9769 17.0498C16.9769 15.7142 17.2807 14.5352 17.8883 13.5129C18.5119 12.4741 19.3514 11.6661 20.4066 11.089C21.4779 10.4954 22.7011 10.1986 24.0762 10.1986C25.4353 10.1986 26.6505 10.4954 27.7218 11.089C28.7931 11.6661 29.6325 12.4658 30.2401 13.4881C30.8477 14.5105 31.1515 15.6977 31.1515 17.0498C31.1515 18.3689 30.8477 19.5479 30.2401 20.5867C29.6325 21.6091 28.7931 22.417 27.7218 23.0107C26.6505 23.6043 25.4353 23.9011 24.0762 23.9011ZM24.0762 20.7351C24.6998 20.7351 25.2594 20.5867 25.7551 20.2899C26.2508 19.9931 26.6425 19.5727 26.9303 19.0285C27.2181 18.4679 27.362 17.8083 27.362 17.0498C27.362 16.2748 27.2181 15.6153 26.9303 15.0711C26.6425 14.527 26.2508 14.1065 25.7551 13.8097C25.2594 13.5129 24.6998 13.3645 24.0762 13.3645C23.4526 13.3645 22.893 13.5129 22.3973 13.8097C21.9017 14.1065 21.5019 14.527 21.1981 15.0711C20.9103 15.6153 20.7664 16.2748 20.7664 17.0498C20.7664 17.8083 20.9103 18.4679 21.1981 19.0285C21.5019 19.5727 21.9017 19.9931 22.3973 20.2899C22.893 20.5867 23.4526 20.7351 24.0762 20.7351Z" fill="#FF781F"/>
<path d="M41.3563 23.7032V21.1062L41.1165 20.5373V15.8873C41.1165 15.0629 40.8686 14.4198 40.373 13.9581C39.8933 13.4964 39.1498 13.2655 38.1424 13.2655C37.4549 13.2655 36.7754 13.381 36.1038 13.6118C35.4482 13.8262 34.8886 14.123 34.4249 14.5022L33.0818 11.8063C33.7854 11.2951 34.6328 10.8993 35.6241 10.619C36.6155 10.3387 37.6228 10.1986 38.6461 10.1986C40.6128 10.1986 42.1398 10.6767 43.2271 11.6331C44.3143 12.5895 44.858 14.0818 44.858 16.1099V23.7032H41.3563ZM37.4229 23.9011C36.4156 23.9011 35.5522 23.7279 34.8327 23.3817C34.1131 23.0189 33.5615 22.5325 33.1778 21.9224C32.794 21.3123 32.6021 20.628 32.6021 19.8695C32.6021 19.078 32.786 18.3854 33.1538 17.7918C33.5375 17.1982 34.1371 16.7365 34.9526 16.4067C35.768 16.0605 36.8313 15.8873 38.1424 15.8873H41.5722V18.1381H38.5502C37.6708 18.1381 37.0632 18.2865 36.7274 18.5833C36.4076 18.8801 36.2477 19.2511 36.2477 19.6963C36.2477 20.191 36.4316 20.5867 36.7993 20.8835C37.1831 21.1639 37.7027 21.304 38.3583 21.304C38.9819 21.304 39.5415 21.1556 40.0372 20.8588C40.5329 20.5455 40.8926 20.0921 41.1165 19.4985L41.6921 21.2793C41.4203 22.1367 40.9246 22.788 40.2051 23.2333C39.4856 23.6785 38.5582 23.9011 37.4229 23.9011Z" fill="#FF781F"/>
<path d="M54.5737 23.9011C53.1827 23.9011 51.9435 23.6125 50.8562 23.0354C49.769 22.4418 48.9135 21.6256 48.2899 20.5867C47.6823 19.5479 47.3785 18.3689 47.3785 17.0498C47.3785 15.7142 47.6823 14.5352 48.2899 13.5129C48.9135 12.4741 49.769 11.6661 50.8562 11.089C51.9435 10.4954 53.1827 10.1986 54.5737 10.1986C55.9328 10.1986 57.1161 10.4954 58.1234 11.089C59.1307 11.6661 59.8742 12.4988 60.3539 13.5871L57.4518 15.1948C57.1161 14.5682 56.6923 14.1065 56.1807 13.8097C55.685 13.5129 55.1414 13.3645 54.5498 13.3645C53.9102 13.3645 53.3346 13.5129 52.8229 13.8097C52.3113 14.1065 51.9035 14.527 51.5997 15.0711C51.3119 15.6153 51.168 16.2748 51.168 17.0498C51.168 17.8248 51.3119 18.4844 51.5997 19.0285C51.9035 19.5727 52.3113 19.9931 52.8229 20.2899C53.3346 20.5867 53.9102 20.7351 54.5498 20.7351C55.1414 20.7351 55.685 20.595 56.1807 20.3147C56.6923 20.0179 57.1161 19.5479 57.4518 18.9048L60.3539 20.5373C59.8742 21.6091 59.1307 22.4418 58.1234 23.0354C57.1161 23.6125 55.9328 23.9011 54.5737 23.9011Z" fill="#FF781F"/>
<path d="M70.2572 10.1986C71.2805 10.1986 72.1919 10.4129 72.9914 10.8416C73.8069 11.2539 74.4464 11.8969 74.9101 12.7709C75.3738 13.6283 75.6057 14.7331 75.6057 16.0852V23.7032H71.8642V16.6788C71.8642 15.607 71.6323 14.8155 71.1686 14.3044C70.7209 13.7932 70.0814 13.5376 69.2499 13.5376C68.6583 13.5376 68.1227 13.6695 67.643 13.9334C67.1793 14.1807 66.8115 14.5682 66.5397 15.0958C66.2839 15.6235 66.156 16.2996 66.156 17.124V23.7032H62.4145V5.35074H66.156V14.0818L65.3165 12.9687C65.7802 12.0783 66.4438 11.394 67.3072 10.9158C68.1706 10.4377 69.154 10.1986 70.2572 10.1986Z" fill="#FF781F"/>
<path d="M77.3423 23.7032L84.5614 13.4387V16.3573L77.654 6.38956H82.0671L86.8399 13.3397L84.9932 13.3645L89.694 6.38956L96 0L87.0558 16.1841V13.315L94.3229 23.7032H89.8379L84.8972 16.3573H86.672L81.8033 23.7032H77.3423Z" fill="#FF781F"/>
</svg>
